<svg width="172" height="172" viewBox="0 0 172 172" fill="none" xmlns="http://www.w3.org/2000/svg">
<g id="Group" filter="url(#filter0_d_1_82)">
<path id="Vector" d="M15 151.148C14.999 151.457 15.0741 151.761 15.2186 152.034C15.3632 152.307 15.5728 152.54 15.8289 152.712C16.085 152.885 16.3796 152.992 16.6868 153.023C16.9939 153.055 17.3041 153.01 17.5899 152.893L51.1978 139.276H58.3481V154.897C58.3481 155.397 58.5464 155.875 58.8994 156.228C59.2524 156.581 59.7311 156.78 60.2303 156.78H111.015C111.514 156.78 111.993 156.581 112.346 156.228C112.699 155.875 112.897 155.397 112.897 154.897V139.276H119.818L153.65 152.897C153.935 153.012 154.245 153.055 154.551 153.022C154.857 152.989 155.151 152.882 155.406 152.71C155.661 152.537 155.87 152.305 156.014 152.033C156.158 151.761 156.234 151.458 156.234 151.15C156.234 117.681 134.056 109.36 128.306 107.766C131.698 66.9289 113.795 37.8702 101.1 22.7376C99.2059 20.4748 96.8384 18.6553 94.1644 17.4078C91.4904 16.1602 88.5752 15.515 85.6245 15.5176H85.6226C79.6373 15.5176 73.9964 18.1489 70.1474 22.7376C57.4598 37.8645 39.566 66.9063 42.9351 107.712C37.6293 109.135 15 117.202 15 151.152V151.148ZM43.3191 111.478C44.2056 119.334 45.892 127.61 48.5383 136.29L18.8189 148.333C19.952 119.983 38.0772 112.929 43.3191 111.478ZM109.133 153.015H62.1125V139.276H109.133V153.015ZM152.413 148.342L122.682 136.371C125.336 127.685 127.028 119.402 127.92 111.54C133.456 113.113 151.291 120.341 152.413 148.342ZM73.0309 25.1562C74.5723 23.3157 76.4988 21.836 78.6745 20.8213C80.8501 19.8067 83.2219 19.2818 85.6226 19.2838C88.0233 19.2813 90.3953 19.8059 92.571 20.8206C94.7468 21.8353 96.6732 23.3153 98.2143 25.1562C100.801 28.2426 103.226 31.4604 105.481 34.7966H65.7639C68.0184 31.4605 70.4452 28.2427 73.0309 25.1562ZM63.3283 38.5609H107.917C120.772 59.2177 132.362 92.1518 119.031 135.511H52.2142C38.8847 92.1537 50.4732 59.2196 63.3283 38.5609Z" fill="#FF00D6"/>
<path id="Vector_2" d="M85.6227 89.6185C95.6715 89.6185 103.846 81.4461 103.846 71.3991C103.846 61.3502 95.6715 53.1779 85.6227 53.1779C75.5757 53.1779 67.4033 61.3502 67.4033 71.3972C67.4033 81.4461 75.5757 89.6185 85.6227 89.6185ZM85.6227 56.9422C93.5936 56.9422 100.081 63.4263 100.081 71.3972C100.081 79.3682 93.5936 85.8542 85.6227 85.8542C77.6517 85.8542 71.1676 79.3701 71.1676 71.3991C71.1676 63.4281 77.6517 56.9422 85.6227 56.9422Z" fill="#FF00D6"/>
</g>
<defs>
<filter id="filter0_d_1_82" x="0" y="0.517578" width="171.234" height="171.262" filterUnits="userSpaceOnUse" color-interpolation-filters="sRGB">
<feFlood flood-opacity="0" result="BackgroundImageFix"/>
<feColorMatrix in="SourceAlpha" type="matrix" values="0 0 0 0 0 0 0 0 0 0 0 0 0 0 0 0 0 0 127 0" result="hardAlpha"/>
<feOffset/>
<feGaussianBlur stdDeviation="7.5"/>
<feColorMatrix type="matrix" values="0 0 0 0 1 0 0 0 0 0 0 0 0 0 0.839216 0 0 0 1 0"/>
<feBlend mode="normal" in2="BackgroundImageFix" result="effect1_dropShadow_1_82"/>
<feBlend mode="normal" in="SourceGraphic" in2="effect1_dropShadow_1_82" result="shape"/>
</filter>
</defs>
</svg>
